<?xml version="1.0" encoding="iso-8859-1"?>
<!-- Generator: Adobe Illustrator 19.0.0, SVG Export Plug-In . SVG Version: 6.00 Build 0)  -->
<svg xmlns="http://www.w3.org/2000/svg" xmlns:xlink="http://www.w3.org/1999/xlink" version="1.1" id="Layer_1" x="0px" y="0px" viewBox="0 0 512 512" style="enable-background:new 0 0 512 512;" xml:space="preserve" width="512px" height="512px">
<g>
	<g>
		<path d="M358.292,124.6c-32.919-29.48-75.441-43.02-119.741-38.122C169.115,94.155,112.46,149.99,103.84,219.243    c-8.252,66.291,26.561,129.926,86.626,158.349c8.967,4.244,14.761,13.466,14.761,23.496v51.588    c0,11.047,7.172,20.445,17.102,23.799v10.406c0,13.851,11.268,25.119,25.119,25.119h17.102c13.851,0,25.119-11.268,25.119-25.119    v-10.406c9.93-3.354,17.102-12.752,17.102-23.799v-51.578c0-10.056,5.691-19.235,14.497-23.382    c25.963-12.226,47.948-31.445,63.578-55.581c16.054-24.791,24.539-53.574,24.539-83.237    C409.386,195.339,390.763,153.678,358.292,124.6z M273.637,486.881c0,5.01-4.076,9.086-9.086,9.086h-17.102    c-5.01,0-9.086-4.076-9.086-9.086v-9.086h35.273V486.881z M290.739,452.676c0,5.01-4.076,9.086-9.086,9.086h-51.307    c-5.01,0-9.086-4.076-9.086-9.086v-26.188h69.478V452.676z M371.39,313.42c-14.003,21.624-33.695,38.841-56.95,49.791    c-14.398,6.779-23.702,21.65-23.702,37.887v9.357h-69.478v-9.367c0-16.197-9.396-31.109-23.937-37.99    c-53.794-25.456-84.97-82.471-77.575-141.875c7.715-61.973,58.419-111.94,120.564-118.81c5.326-0.589,10.624-0.881,15.876-0.881    c33.896,0,65.883,12.153,91.406,35.009c29.079,26.043,45.757,63.349,45.757,102.355    C393.353,265.462,385.758,291.231,371.39,313.42z" fill="#ebd2af"/>
	</g>
</g>
<g>
	<g>
		<path d="M486.881,230.881h-51.307c-4.427,0-8.017,3.589-8.017,8.017s3.589,8.017,8.017,8.017h51.307    c4.427,0,8.017-3.589,8.017-8.017S491.308,230.881,486.881,230.881z" fill="#ebd2af"/>
	</g>
</g>
<g>
	<g>
		<path d="M76.426,230.881H25.119c-4.427,0-8.017,3.589-8.017,8.017s3.589,8.017,8.017,8.017h51.307    c4.427,0,8.017-3.589,8.017-8.017S80.853,230.881,76.426,230.881z" fill="#ebd2af"/>
	</g>
</g>
<g>
	<g>
		<path d="M256,0c-4.427,0-8.017,3.589-8.017,8.017v51.307c0,4.428,3.589,8.017,8.017,8.017s8.017-3.588,8.017-8.017V8.017    C264.017,3.589,260.427,0,256,0z" fill="#ebd2af"/>
	</g>
</g>
<g>
	<g>
		<path d="M273.626,152.886c-4.649-4.847-10.91-7.516-17.626-7.516s-12.975,2.669-17.624,7.516s-7.056,11.212-6.776,17.922    l4.648,111.536c0.372,8.904,7.643,15.877,16.554,15.877h6.398c8.911,0,16.182-6.975,16.554-15.877l4.648-111.536    C280.681,164.098,278.275,157.733,273.626,152.886z M259.734,281.676c-0.012,0.288-0.246,0.512-0.534,0.512h-6.398    c-0.288,0-0.522-0.226-0.534-0.512l-4.648-111.536c-0.096-2.305,0.73-4.49,2.327-6.156c1.597-1.665,3.746-2.581,6.053-2.581    c2.307,0,4.456,0.916,6.053,2.581s2.423,3.851,2.327,6.156L259.734,281.676z" fill="#ebd2af"/>
	</g>
</g>
<g>
	<g>
		<path d="M256,316.393c-11.493,0-20.843,9.351-20.843,20.843c0,11.493,9.351,20.843,20.843,20.843s20.843-9.351,20.843-20.843    C276.843,325.743,267.493,316.393,256,316.393z M256,342.046c-2.652,0-4.81-2.158-4.81-4.81s2.158-4.81,4.81-4.81    s4.81,2.158,4.81,4.81S258.652,342.046,256,342.046z" fill="#ebd2af"/>
	</g>
</g>
<g>
	<g>
		<path d="M362.622,54.223c-3.834-2.215-8.737-0.9-10.951,2.934l-12.827,22.217c-2.214,3.834-0.9,8.737,2.934,10.951    c1.262,0.729,2.641,1.075,4.001,1.075c2.771,0,5.465-1.438,6.95-4.009l12.827-22.217C367.77,61.34,366.456,56.437,362.622,54.223z    " fill="#ebd2af"/>
	</g>
</g>
<g>
	<g>
		<path d="M170.221,387.471c-3.835-2.215-8.738-0.9-10.951,2.934l-12.827,22.217c-2.214,3.834-0.9,8.737,2.934,10.951    c1.262,0.729,2.641,1.075,4.001,1.075c2.771,0,5.465-1.439,6.95-4.009l12.827-22.217    C175.369,394.587,174.055,389.684,170.221,387.471z" fill="#ebd2af"/>
	</g>
</g>
<g>
	<g>
		<path d="M173.155,79.374l-12.827-22.217c-2.214-3.834-7.117-5.148-10.951-2.934s-5.148,7.117-2.934,10.951l12.827,22.217    c1.485,2.572,4.179,4.009,6.95,4.009c1.36,0,2.738-0.346,4.001-1.075C174.055,88.111,175.369,83.208,173.155,79.374z" fill="#ebd2af"/>
	</g>
</g>
<g>
	<g>
		<path d="M365.556,412.622l-12.827-22.217c-2.214-3.835-7.117-5.147-10.951-2.934c-3.834,2.214-5.148,7.117-2.934,10.951    l12.827,22.217c1.485,2.572,4.179,4.009,6.95,4.009c1.36,0,2.739-0.346,4.001-1.075    C366.456,421.359,367.77,416.456,365.556,412.622z" fill="#ebd2af"/>
	</g>
</g>
<g>
	<g>
		<path d="M437.741,334.569l-22.217-12.827c-3.835-2.215-8.737-0.9-10.951,2.934c-2.214,3.834-0.9,8.737,2.934,10.951l22.217,12.827    c1.262,0.729,2.641,1.075,4.001,1.075c2.771,0,5.465-1.438,6.95-4.009C442.889,341.686,441.575,336.783,437.741,334.569z" fill="#ebd2af"/>
	</g>
</g>
<g>
	<g>
		<path d="M104.493,142.168l-22.217-12.827c-3.834-2.215-8.737-0.9-10.951,2.934s-0.9,8.737,2.934,10.951l22.217,12.827    c1.262,0.729,2.641,1.075,4.001,1.075c2.771,0,5.465-1.438,6.95-4.009C109.641,149.285,108.327,144.382,104.493,142.168z" fill="#ebd2af"/>
	</g>
</g>
<g>
	<g>
		<path d="M440.675,132.276c-2.214-3.835-7.118-5.148-10.951-2.934l-22.217,12.827c-3.834,2.214-5.148,7.117-2.934,10.951    c1.485,2.572,4.179,4.009,6.95,4.009c1.36,0,2.739-0.346,4.001-1.075l22.217-12.827    C441.575,141.013,442.889,136.11,440.675,132.276z" fill="#ebd2af"/>
	</g>
</g>
<g>
	<g>
		<path d="M107.427,324.676c-2.214-3.835-7.117-5.148-10.951-2.934l-22.217,12.827c-3.834,2.214-5.148,7.117-2.934,10.951    c1.485,2.572,4.179,4.009,6.95,4.009c1.36,0,2.738-0.346,4.001-1.075l22.217-12.827    C108.327,333.414,109.641,328.511,107.427,324.676z" fill="#ebd2af"/>
	</g>
</g>
<g>
</g>
<g>
</g>
<g>
</g>
<g>
</g>
<g>
</g>
<g>
</g>
<g>
</g>
<g>
</g>
<g>
</g>
<g>
</g>
<g>
</g>
<g>
</g>
<g>
</g>
<g>
</g>
<g>
</g>
</svg>
