<?xml version="1.0" encoding="iso-8859-1"?>
<!-- Generator: Adobe Illustrator 19.0.0, SVG Export Plug-In . SVG Version: 6.00 Build 0)  -->
<svg xmlns="http://www.w3.org/2000/svg" xmlns:xlink="http://www.w3.org/1999/xlink" version="1.1" id="Layer_1" x="0px" y="0px" viewBox="0 0 512 512" style="enable-background:new 0 0 512 512;" xml:space="preserve" width="512px" height="512px">
<g>
	<g>
		<path d="M256,40.32c-77.12,0-139.632,63.056-139.632,140.848S178.88,322.016,256,322.016s139.632-63.056,139.632-140.848    S333.12,40.32,256,40.32z M256,306.016c-68.176,0-123.632-56-123.632-124.848S187.824,56.32,256,56.32s123.632,56,123.632,124.848    C379.632,250,324.176,306.016,256,306.016z" fill="#00afec"/>
	</g>
</g>
<g>
	<g>
		<ellipse cx="257.28" cy="139.472" rx="28.496" ry="28.736" fill="#00afec"/>
	</g>
</g>
<g>
	<g>
		<path d="M288.848,188.048L257.36,212l-31.488-23.952C187.104,199.776,187.6,239.36,187.6,239.36h69.776h69.744    C327.12,239.36,327.6,199.776,288.848,188.048z" fill="#00afec"/>
	</g>
</g>
<g>
	<g>
		<rect x="116.352" y="385.28" width="279.28" height="16" fill="#00afec"/>
	</g>
</g>
<g>
	<g>
		<rect y="455.68" width="512" height="16" fill="#00afec"/>
	</g>
</g>
<g>
</g>
<g>
</g>
<g>
</g>
<g>
</g>
<g>
</g>
<g>
</g>
<g>
</g>
<g>
</g>
<g>
</g>
<g>
</g>
<g>
</g>
<g>
</g>
<g>
</g>
<g>
</g>
<g>
</g>
</svg>
